<svg id="Group_18" data-name="Group 18" xmlns="http://www.w3.org/2000/svg" width="397.143" height="85.355" viewBox="0 0 397.143 85.355">
  <g id="Group_17" data-name="Group 17" transform="translate(0 0.028)">
    <path id="Path_16" data-name="Path 16" d="M940.3,640.961v-6.146c-.018-.421-.018-.87-.018-1.362V600.336c0-7.269,0-22.189-28.889-22.189-6.339,0-15.019.59-21.845,4.1-8.677,4.591-9.989,11.873-10.926,17.033h22.659c.825-4.226,2.358-7.044,7.89-7.044,6.911,0,8.09,2.818,8.209,6.921a79.116,79.116,0,0,1-12.917,2.6c-10.687,1.393-17.25,2.345-22.782,7.978a17.811,17.811,0,0,0-5.159,13.036c0,.446.014.9.042,1.362a23.582,23.582,0,0,1-3.222.281c-6.451,0-6.574-4-6.574-6.36l.246-18.781h10.575V578.859H867.37v-20.88H843.058l-.221,20.88h-8.459v5.233a37.1,37.1,0,0,0-11.919-4.773,61.316,61.316,0,0,0-13.73-1.65c-4,0-14.345.239-21.512,7.052a19.492,19.492,0,0,0-6.093,13.856c0,12.913,11.151,16.212,16.784,17.851a107.191,107.191,0,0,0,12.688,2.811c2.464.358,6.093.944,6.093,3.994,0,2.706-3.4,3.766-6.332,3.766a25.117,25.117,0,0,1-9.624-2,25.792,25.792,0,0,1-9.161-6.227L778.063,631.1c5.163,4.233,15.155,12.2,32.532,12.2,18.907,0,28.882-10.561,28.882-22.543a17.376,17.376,0,0,0-9.5-15.843c-2.959-1.537-5.525-2.113-16.324-4.584-8.108-1.98-9.757-2.352-9.757-4.573,0-3.169,4.229-3.169,5.17-3.169,6.462,0,11.512,3.169,15.622,5.763l9.691-8.831v9.747h8.336l-.347,24.9c0,3.05,0,8.462,4.1,12.569,4.812,4.935,13.4,5.047,15.959,5.047a115.047,115.047,0,0,0,15.271-1.3v-10.61c2.52,7.111,9.171,12.477,20.792,12.477,11.385,0,17.022-3.977,20.072-6.093v4.693Zm-24.218-21.126c-2.106,4.7-7.746,6.918-11.147,6.918-4.57,0-5.984-3.05-5.984-4.686,0-.706.235-3.538,4.928-5.405,2.116-.705,4.232-1.186,6.223-1.646,2.474-.716,4.819-1.527,7.16-2.359A16.315,16.315,0,0,1,916.087,619.836Z" transform="translate(-778.063 -557.979)"/>
    <g id="Group_16" data-name="Group 16" transform="translate(163.915 0.154)">
      <path id="Path_17" data-name="Path 17" d="M870.695,563.928h-5.373v.032c-7.276.193-11.428,1.344-17.24,6.535v-5.636H824.835v60.316c-.028-.035-.046-.063-.07-.091v.948H848.9V597.384c.116-3.994.256-12.962,14.464-12.962.867,0,1.779-.06,2.685-.081h1.92c.137,0,.284,0,.432.007v-.007h2.3Z" transform="translate(-824.765 -543.203)"/>
      <path id="Path_18" data-name="Path 18" d="M868.928,575.463h4.457v-17.44H860.707c-13.407,0-14.892,2-17.966,4.278-4.286,4.468-4.237,8.459-4.465,13.036v3.412h-.014v20.413h.014v41.689h24.19V598.709h10.919v-19.96H862.466C862.466,575.568,863.782,575.463,868.928,575.463Z" transform="translate(-790.89 -558.023)"/>
    </g>
  </g>
  <path id="Path_19" data-name="Path 19" d="M992.474,583.677c-3.762-3.742-9.982-6.1-16.91-6.1-12.572,0-17.265,3.769-19.5,6.468V557.971H932v57.491a17.43,17.43,0,0,0-8.757-10.523c-2.934-1.537-5.521-2.113-16.335-4.584-8.1-1.98-9.739-2.352-9.739-4.573,0-3.169,4.233-3.169,5.163-3.169,6.458,0,11.505,3.169,15.619,5.763L930.978,586.5c-3.4-2.59-6.928-5.17-15.257-7.16a61.284,61.284,0,0,0-13.744-1.65c-3.994,0-14.32.239-21.483,7.051a19.417,19.417,0,0,0-6.1,13.857c0,12.913,11.144,16.212,16.787,17.851a105.8,105.8,0,0,0,12.681,2.811c2.471.358,6.111.944,6.111,3.994,0,2.706-3.412,3.766-6.353,3.766a25.127,25.127,0,0,1-9.624-2,25.73,25.73,0,0,1-9.157-6.227l-11.976,10.954V578.879H848.673v62.1h24.186v-8.63a47.474,47.474,0,0,0,31,10.975c15.924,0,25.5-7.476,28.138-17v14.657h24.19V606.7c0-2.818.112-9.154,9.048-9.154,8.434,0,8.574,5.978,8.69,8.677v34.758h24.063v-39.8c-.239-5.4-.46-12.207-5.514-17.5" transform="translate(-600.845 -557.971)"/>
</svg>
